<svg viewBox="0 0 466 466" xmlns="http://www.w3.org/2000/svg" fill-rule="evenodd" clip-rule="evenodd" stroke-linejoin="round" stroke-miterlimit="1.414"><g fill="#e73a3a"><path d="M374.892 195.434s3.611-12.364 5.806-18.421c2.69-7.423 14.325-20.408 25.928-24.588 12.452-4.486 36.027-3.19 43.529 6.441 10.299 13.221-7.772 24.244-17.693 15.399-6.906-6.157-7.449-15.997-7.449-15.997s-17.61.708-19.955 26.745c-.172 1.913-.653 10.989-.653 10.989l22.864.075-4.132 12.319-19.594.152s-11.967 63.344-20.133 79.814c-12.651 25.517-31.151 31.775-46.334 33.013-13 1.059-19.584-2.142-24.79-9.53-11.076-15.722 8.283-29.73 21.957-18.145 5.706 4.834 2.154 17.46 2.154 17.46s14.702-3.356 20.673-21.178c6.347-18.948 16.384-80.826 16.384-80.826l-37.91.558s-7.378 40.873-19.225 70.52c-12.62 31.581-33.064 39.399-52.52 40.401-10.695.551-19.695-5.199-21.391-11.389-4.297-15.676 10.723-27.025 21.865-15.682 7.923 8.065 3.861 17.919 3.861 17.919s15.948-6.159 21.263-23.593c5.867-19.246 16.748-79.261 16.748-79.261l-20.202.043 4.797-13.12 15.984.77s2.569-12.226 5.802-19.015c5.12-10.751 17.663-25.203 28.939-29.254 16.009-5.753 35.237-5.225 42.781 4.276 9.775 12.313-10.323 21.938-19.06 14.373-6.762-5.854-6.813-14.799-6.813-14.799s-16.389 5.264-19.282 27.479c-.694 5.332-2.673 16.072-2.673 16.072l38.474-.02z"/><path d="M162.936 200.512s28.813-18.673 44.293-1.45c6.377 7.094 4.378 25.295-.259 35.9-19.365 44.285 8.875 35.467 19.388 23.079l15.261-64.062 28.091-2.712s-16.544 69.615-16.405 70.528c1.768 11.61 22.367 1.827 22.367 1.827l-3.473 11.669s-4.144 9.002-27.846 8.696c-11.698-.151-19.084-13.736-19.084-13.736s-9.568 8.128-32.747 13.7c-20.051 4.82-26.871-14.641-21.739-32.6 2.946-10.312 7.018-22.446 9.486-32.331 4.586-18.368-20.444-8.527-20.444-8.527l3.111-9.981zM16.728 169.695c10.027-7.765 63.415-12.215 63.415-12.215 46.826-3.588 79.23 10.296 75.555 55.868-4.538 56.275-62.953 71.126-101.77 68.696l-31.344-1.614c-2.966-1.178-6.717-5.391-9.87-7.495l.391-8.614s8.533 1.413 12.135-.406l20.847-89.125s-14.234-1.417-31.104 3.747l1.745-8.842zm63.478-2.688L57.467 269.473c1.569 4.259 62.787 12.308 62.282-70.528-.261-42.781-39.543-31.938-39.543-31.938z"/></g><path fill="#314280" d="M0 0h465.9v100H0zM0 365.9h465.9v100H0z"/></svg>